<?xml version="1.0" encoding="UTF-8"?>
<!DOCTYPE svg PUBLIC "-//W3C//DTD SVG 1.1//EN" "http://www.w3.org/Graphics/SVG/1.1/DTD/svg11.dtd">
<svg xmlns="http://www.w3.org/2000/svg" version="1.1" width="227px" height="39px" style="shape-rendering:geometricPrecision; text-rendering:geometricPrecision; image-rendering:optimizeQuality; fill-rule:evenodd; clip-rule:evenodd" xmlns:xlink="http://www.w3.org/1999/xlink">
<g><path style="opacity:0.925" fill="#006aff" d="M 12.5,12.5 C 11.8333,12.5 11.5,12.8333 11.5,13.5C 10.8902,14.391 10.5569,15.391 10.5,16.5C 8.4071,21.4161 10.0738,23.4161 15.5,22.5C 15.4431,23.609 15.1098,24.609 14.5,25.5C 3.84182,28.3396 -0.658178,24.3396 1,13.5C 2.64526,5.4226 7.47859,2.58926 15.5,5C 14.0087,7.30782 13.0087,9.80782 12.5,12.5 Z"/></g>
<g><path style="opacity:0.91" fill="#56ebb9" d="M 12.5,12.5 C 20.1185,10.6373 24.7851,13.4707 26.5,21C 25.5597,25.8774 23.5597,30.2107 20.5,34C 17.5184,34.498 14.5184,34.6646 11.5,34.5C 12.2134,31.4061 13.2134,28.4061 14.5,25.5C 15.1098,24.609 15.4431,23.609 15.5,22.5C 17.5929,17.5839 15.9262,15.5839 10.5,16.5C 10.5569,15.391 10.8902,14.391 11.5,13.5C 12.1667,13.5 12.5,13.1667 12.5,12.5 Z"/></g>
<g><path style="opacity:0.804" fill="#4b4c4b" d="M 31.5,13.5 C 34.2469,13.1866 36.9135,13.52 39.5,14.5C 38.3112,15.4287 36.9778,15.762 35.5,15.5C 35.5,16.5 35.5,17.5 35.5,18.5C 40.8333,19.1667 40.8333,19.8333 35.5,20.5C 35.5,21.8333 35.5,23.1667 35.5,24.5C 37.288,24.2148 38.9547,24.5481 40.5,25.5C 37.5719,26.4841 34.5719,26.8174 31.5,26.5C 31.5,22.1667 31.5,17.8333 31.5,13.5 Z"/></g>
<g><path style="opacity:0.801" fill="#4b4c4b" d="M 41.5,13.5 C 42.5,13.5 43.5,13.5 44.5,13.5C 44.3323,18.5324 45.3323,18.6991 47.5,14C 49.1667,13.3333 50.8333,13.3333 52.5,14C 50.4164,15.5007 49.0831,17.5007 48.5,20C 49.8182,21.9896 51.1515,23.9896 52.5,26C 48.2756,27.4503 45.7756,25.9503 45,21.5C 44.5065,23.1341 44.3398,24.8008 44.5,26.5C 43.5,26.5 42.5,26.5 41.5,26.5C 41.5,22.1667 41.5,17.8333 41.5,13.5 Z"/></g>
<g><path style="opacity:0.763" fill="#4b4c4b" d="M 55.5,13.5 C 61.3645,11.9547 64.6978,14.1213 65.5,20C 64.6852,26.0395 61.3519,28.0395 55.5,26C 51.5363,21.8802 51.5363,17.7135 55.5,13.5 Z M 58.5,15.5 C 62.2708,18.2195 62.4374,21.2195 59,24.5C 55.872,21.6455 55.7053,18.6455 58.5,15.5 Z"/></g>
<g><path style="opacity:0.747" fill="#4b4c4b" d="M 81.5,15.5 C 84.1625,13.7319 87.1625,13.0653 90.5,13.5C 90.6198,16.2048 89.6198,16.8715 87.5,15.5C 86.6919,15.8076 86.0253,16.3076 85.5,17C 87.2487,18.2915 89.082,19.4582 91,20.5C 91.8249,22.7008 91.3249,24.5341 89.5,26C 81.6916,26.0483 74.0249,26.215 66.5,26.5C 66.3802,23.7952 67.3802,23.1285 69.5,24.5C 70.3081,24.1924 70.9747,23.6924 71.5,23C 66.8532,21.3665 65.5199,18.3665 67.5,14C 69.8333,13.8333 72.1667,13.6667 74.5,13.5C 77.2695,13.5286 79.6028,14.1952 81.5,15.5 Z M 70.5,15.5 C 72.3911,16.5361 74.2245,16.5361 76,15.5C 76.6667,18.5 76.6667,21.5 76,24.5C 75.6194,20.4527 73.4527,17.9527 69.5,17C 70.056,16.6174 70.3893,16.1174 70.5,15.5 Z M 81.5,15.5 C 81.4208,16.9305 81.7542,18.2638 82.5,19.5C 84.1667,20.6667 85.8333,21.8333 87.5,23C 87.1667,23.3333 86.8333,23.6667 86.5,24C 84.6199,23.4902 82.7866,23.6569 81,24.5C 80.1955,21.3035 80.3622,18.3035 81.5,15.5 Z"/></g>
<g><path style="opacity:0.763" fill="#4b4c4b" d="M 91.5,13.5 C 95.226,13.1774 98.8927,13.5108 102.5,14.5C 101.311,15.4287 99.9778,15.762 98.5,15.5C 98.5,19.1667 98.5,22.8333 98.5,26.5C 97.1667,26.5 95.8333,26.5 94.5,26.5C 94.5,22.8333 94.5,19.1667 94.5,15.5C 92.8212,15.7148 91.8212,15.0481 91.5,13.5 Z"/></g>
<g><path style="opacity:0.934" fill="#4b4c4b" d="M 103.5,13.5 C 106.247,13.1866 108.914,13.52 111.5,14.5C 109.955,15.4519 108.288,15.7852 106.5,15.5C 106.5,16.5 106.5,17.5 106.5,18.5C 111.833,19.1667 111.833,19.8333 106.5,20.5C 106.5,21.8333 106.5,23.1667 106.5,24.5C 108.288,24.2148 109.955,24.5481 111.5,25.5C 108.914,26.48 106.247,26.8134 103.5,26.5C 103.5,22.1667 103.5,17.8333 103.5,13.5 Z"/></g>
<g><path style="opacity:0.778" fill="#4b4c4b" d="M 112.5,13.5 C 114.5,13.5 116.5,13.5 118.5,13.5C 119.833,21.5 121.167,21.5 122.5,13.5C 124.167,13.5 125.833,13.5 127.5,13.5C 127.5,17.8333 127.5,22.1667 127.5,26.5C 126.5,26.5 125.5,26.5 124.5,26.5C 124.449,18.6274 123.782,18.6274 122.5,26.5C 118.962,26.7847 117.129,25.118 117,21.5C 116.506,23.1341 116.34,24.8008 116.5,26.5C 115.167,26.5 113.833,26.5 112.5,26.5C 112.5,22.1667 112.5,17.8333 112.5,13.5 Z"/></g>
<g><path style="opacity:0.752" fill="#4b4c4b" d="M 134.5,13.5 C 138.584,13.0431 142.417,13.7098 146,15.5C 147.656,24.6752 143.823,28.3419 134.5,26.5C 134.5,22.1667 134.5,17.8333 134.5,13.5 Z M 138.5,15.5 C 141.05,15.8844 142.383,17.3844 142.5,20C 142.505,22.1628 141.505,23.6628 139.5,24.5C 138.516,21.5719 138.183,18.5719 138.5,15.5 Z"/></g>
<g><path style="opacity:0.774" fill="#4b4c4b" d="M 151.5,13.5 C 153.144,13.2865 154.644,13.6198 156,14.5C 157.505,18.3502 159.005,22.1835 160.5,26C 158.866,26.4935 157.199,26.6602 155.5,26.5C 155.5,25.5 155.5,24.5 155.5,23.5C 154.167,23.5 152.833,23.5 151.5,23.5C 151.5,24.5 151.5,25.5 151.5,26.5C 149.801,26.6602 148.134,26.4935 146.5,26C 148.464,21.9409 150.13,17.7742 151.5,13.5 Z M 152.5,19.5 C 154.337,19.6395 154.67,20.3061 153.5,21.5C 152.702,21.0431 152.369,20.3764 152.5,19.5 Z"/></g>
<g><path style="opacity:0.913" fill="#4b4c4b" d="M 159.5,13.5 C 163.226,13.1774 166.893,13.5108 170.5,14.5C 169.311,15.4287 167.978,15.762 166.5,15.5C 166.5,19.1667 166.5,22.8333 166.5,26.5C 165.5,26.5 164.5,26.5 163.5,26.5C 163.5,22.8333 163.5,19.1667 163.5,15.5C 161.517,15.8432 160.183,15.1765 159.5,13.5 Z"/></g>
<g><path style="opacity:0.774" fill="#4b4c4b" d="M 174.5,13.5 C 176.144,13.2865 177.644,13.6198 179,14.5C 180.505,18.3502 182.005,22.1835 183.5,26C 181.866,26.4935 180.199,26.6602 178.5,26.5C 178.5,25.5 178.5,24.5 178.5,23.5C 177.167,23.5 175.833,23.5 174.5,23.5C 174.5,24.5 174.5,25.5 174.5,26.5C 172.801,26.6602 171.134,26.4935 169.5,26C 171.464,21.9409 173.13,17.7742 174.5,13.5 Z M 175.5,19.5 C 177.337,19.6395 177.67,20.3061 176.5,21.5C 175.702,21.0431 175.369,20.3764 175.5,19.5 Z"/></g>
<g><path style="opacity:0.726" fill="#4b4c4b" d="M 188.5,13.5 C 190.199,13.3398 191.866,13.5065 193.5,14C 196.529,21.2474 197.862,21.0807 197.5,13.5C 198.833,13.5 200.167,13.5 201.5,13.5C 201.5,17.8333 201.5,22.1667 201.5,26.5C 199.712,26.7852 198.045,26.4519 196.5,25.5C 193.157,17.1888 191.824,17.5221 192.5,26.5C 191.167,26.5 189.833,26.5 188.5,26.5C 188.5,22.1667 188.5,17.8333 188.5,13.5 Z"/></g>
<g><path style="opacity:0.849" fill="#4b4c4b" d="M 202.5,13.5 C 209.532,13.1697 216.532,13.503 223.5,14.5C 222.311,15.4287 220.978,15.762 219.5,15.5C 219.5,19.1667 219.5,22.8333 219.5,26.5C 218.5,26.5 217.5,26.5 216.5,26.5C 216.5,22.8333 216.5,19.1667 216.5,15.5C 214.167,15.5 211.833,15.5 209.5,15.5C 209.5,19.1667 209.5,22.8333 209.5,26.5C 208.167,26.5 206.833,26.5 205.5,26.5C 205.5,22.8333 205.5,19.1667 205.5,15.5C 203.821,15.7148 202.821,15.0481 202.5,13.5 Z"/></g>
</svg>
